# xmcd
#
# Track frame offsets: 
#        187
#        20622
#        34365
#        56330
#        81930
#        102872
#        118407
#        131542
#        141505
#        154690
#        168485
#        182372
#        193850
#        204465
#        214247
#        227667
#        240942
#        252450
#        264340
#        279375
#
# Disc length: 3867 seconds
#
# Revision: 2
# Processed by: cddbd v1.5.1PL0 Copyright (c) Steve Scherf et al.
# Submitted via: ExactAudioCopy v0.95a5
#
DISCID=210f1914
DTITLE=Toots Thielemans - THE WINDMILLS OF YOUR MIND - TOOTS THIELEMAN
DTITLE=S BEST
DYEAR=1900
DGENRE=Jazz
TTITLE0=ROUND MIDNIGHT - Good Evening The Lonious
TTITLE1=THE WINDMILLS OF YOUR MIND - Bonjour Michel
TTITLE2=WILLOW WEEP FOR ME
TTITLE3=CORCOVADO
TTITLE4=MY CHERIE AMOUR
TTITLE5=SUNNY GOODGE STREET
TTITLE6=VISAO
TTITLE7=WILSAMBA
TTITLE8=THE GIRL FROM IPANEMA
TTITLE9=MIDNIGHT COWBOY
TTITLE10=LA MAMMA
TTITLE11=THE JAZZ WALTZ
TTITLE12=TORNADO
TTITLE13=YESTERDAY
TTITLE14=I'LL NEVER FALL IN LOVE AGAIN
TTITLE15=LIGHT MY FIRE
TTITLE16=THEME FROM PEYTON PLACE
TTITLE17=UP UP AND AWAY
TTITLE18=WHERE ARE THEY NOW?
TTITLE19=ONE MORNING IN ROME
EXTD=
EXTT0=
EXTT1=
EXTT2=
EXTT3=
EXTT4=
EXTT5=
EXTT6=
EXTT7=
EXTT8=
EXTT9=
EXTT10=
EXTT11=
EXTT12=
EXTT13=
EXTT14=
EXTT15=
EXTT16=
EXTT17=
EXTT18=
EXTT19=
PLAYORDER=
